<svg width="24" height="24" viewBox="0 0 24 24" fill="none" xmlns="http://www.w3.org/2000/svg">
<path d="M22.8624 11.3023C22.7751 11.0775 22.6442 10.8721 22.4773 10.6978L13.3068 1.53872C13.1358 1.36793 12.9328 1.23244 12.7093 1.14001C12.4859 1.04758 12.2464 1 12.0046 1C11.5162 1 11.0477 1.19378 10.7024 1.53872C10.5314 1.70952 10.3957 1.91229 10.3032 2.13544C10.2106 2.3586 10.163 2.59778 10.163 2.83932C10.163 3.32714 10.357 3.79497 10.7024 4.13991L16.7549 10.1666H2.8341C2.34766 10.1666 1.88115 10.3596 1.53719 10.7031C1.19323 11.0467 1 11.5126 1 11.9984C1 12.4843 1.19323 12.9502 1.53719 13.2937C1.88115 13.6373 2.34766 13.8303 2.8341 13.8303H16.7549L10.7024 19.857C10.5305 20.0273 10.394 20.2299 10.3009 20.4531C10.2078 20.6763 10.1598 20.9157 10.1598 21.1576C10.1598 21.3994 10.2078 21.6388 10.3009 21.862C10.394 22.0853 10.5305 22.2879 10.7024 22.4581C10.8729 22.6298 11.0757 22.7661 11.2992 22.8591C11.5227 22.9521 11.7625 23 12.0046 23C12.2467 23 12.4864 22.9521 12.7099 22.8591C12.9334 22.7661 13.1363 22.6298 13.3068 22.4581L22.4773 13.299C22.6442 13.1248 22.7751 12.9194 22.8624 12.6945C23.0459 12.2486 23.0459 11.7483 22.8624 11.3023Z" fill="white"/>
</svg>
