<svg width="22" height="20" viewBox="0 0 22 20" fill="none" xmlns="http://www.w3.org/2000/svg">
<path d="M21.8624 9.30234C21.7751 9.07748 21.6442 8.87205 21.4773 8.69784L13.9391 0.829202C13.7681 0.658405 13.565 0.522923 13.3416 0.430488C13.1182 0.338054 12.8787 0.290478 12.6369 0.290478C12.1484 0.290478 11.68 0.484263 11.3346 0.829202C11.1636 0.999998 11.028 1.20276 10.9354 1.42592C10.8429 1.64908 10.7953 1.88825 10.7953 2.1298C10.7953 2.61761 10.9893 3.08545 11.3346 3.43039L15.7549 8.16661H1.8341C1.34766 8.16661 0.881154 8.35961 0.537194 8.70314C0.193235 9.04667 0 9.5126 0 9.99843C0 10.4843 0.193235 10.9502 0.537194 11.2937C0.881154 11.6373 1.34766 11.8303 1.8341 11.8303H15.7549L11.1073 16.1098C10.9354 16.2801 10.799 16.4827 10.7059 16.7059C10.6128 16.9291 10.5648 17.1686 10.5648 17.4104C10.5648 17.6522 10.6128 17.8916 10.7059 18.1149C10.799 18.3381 10.9354 18.5407 11.1073 18.711C11.2778 18.8827 11.4807 19.0189 11.7042 19.1119C11.9277 19.2049 12.1674 19.2528 12.4096 19.2528C12.6517 19.2528 12.8914 19.2049 13.1149 19.1119C13.3384 19.0189 13.5413 18.8827 13.7118 18.711L21.4773 11.299C21.6442 11.1248 21.7751 10.9194 21.8624 10.6945C22.0459 10.2485 22.0459 9.74832 21.8624 9.30234Z" fill="white"/>
</svg>
