<svg width="24" height="24" viewBox="0 0 24 24" fill="none" xmlns="http://www.w3.org/2000/svg">
<path fill-rule="evenodd" clip-rule="evenodd" d="M2.51239 10.8238C8.41795 8.25899 12.3559 6.56815 14.3263 5.75121C19.9521 3.4187 21.1211 3.01352 21.883 3.00014C22.0506 2.9972 22.4253 3.0386 22.668 3.23492C22.873 3.40068 22.9294 3.62461 22.9563 3.78177C22.9833 3.93894 23.0169 4.29696 22.9902 4.57672C22.6854 7.76974 21.3662 15.5184 20.6951 19.0946C20.4111 20.6079 19.852 21.1153 19.3107 21.1649C18.1343 21.2728 17.2409 20.3899 16.1015 19.6454C14.3186 18.4804 13.3113 17.7552 11.5807 16.6183C9.58058 15.3045 10.8772 14.5824 12.017 13.4023C12.3153 13.0934 17.4986 8.39388 17.5989 7.96755C17.6115 7.91423 17.6231 7.71548 17.5046 7.61054C17.3862 7.50559 17.2114 7.54148 17.0852 7.57002C16.9064 7.61048 14.0581 9.48709 8.54035 13.1999C7.73187 13.7532 6.99958 14.0229 6.34347 14.0087C5.62016 13.9932 4.2288 13.6011 3.19447 13.2659C1.92583 12.8549 0.91753 12.6375 1.00533 11.9394C1.05106 11.5758 1.55341 11.2039 2.51239 10.8238Z" fill="white"/>
</svg>
